<?xml version="1.0" encoding="UTF-8"?>
<svg xmlns="http://www.w3.org/2000/svg" xmlns:xlink="http://www.w3.org/1999/xlink" width="1898pt" height="1059pt" viewBox="0 0 1898 1059" version="1.2">
<defs>
<clipPath id="clip1">
  <path d="M 18.5 2.5 L 1898 2.5 L 1898 1059 L 18.5 1059 Z M 18.5 2.5 "/>
</clipPath>
</defs>
<g id="surface152">
<g clip-path="url(#clip1)" clip-rule="nonzero">

</g>
<path style="fill:none;stroke-width:2;stroke-linecap:butt;stroke-linejoin:miter;stroke:rgb(19.607843%,89.411765%,88.235295%);stroke-opacity:1;stroke-miterlimit:10;" d="M 175 547 L 175 547 M 175 547 L 175 547 M 175 547 L 175 547 M 175 547 L 175 547 " transform="matrix(1,0,0,-1,0.5,1079.5)"/>
<path style="fill:none;stroke-width:2;stroke-linecap:butt;stroke-linejoin:miter;stroke:rgb(19.607843%,89.411765%,88.235295%);stroke-opacity:1;stroke-miterlimit:10;" d="M 175 545 L 175 545 M 175 545 L 175 545 M 175 545 L 175 545 M 175 545 L 175 545 " transform="matrix(1,0,0,-1,0.5,1079.5)"/>
<path style="fill:none;stroke-width:2;stroke-linecap:butt;stroke-linejoin:miter;stroke:rgb(0%,0%,0%);stroke-opacity:0.724409;stroke-miterlimit:10;" d="M 174 547 L 177 547 M 174 544 L 177 544 M 174 544 L 174 547 M 177 544 L 177 547 M 177 547 L 181 547 M 177 544 L 181 544 M 177 544 L 177 547 M 181 544 L 181 547 M 181 547 L 187 547 M 181 544 L 187 544 M 181 544 L 181 547 M 187 544 L 187 547 M 187 547 L 189 547 M 187 544 L 189 544 M 187 544 L 187 547 M 189 544 L 189 547 M 189 547 L 193 547 M 189 544 L 193 544 M 189 544 L 189 547 M 193 544 L 193 547 M 194 547 L 200 547 M 194 544 L 200 544 M 194 544 L 194 547 M 200 544 L 200 547 M 200 547 L 204 547 M 200 544 L 204 544 M 200 544 L 200 547 M 204 544 L 204 547 M 204 547 L 207 547 M 204 544 L 207 544 M 204 544 L 204 547 M 207 544 L 207 547 M 207 547 L 212 547 M 207 544 L 212 544 M 207 544 L 207 547 M 212 544 L 212 547 M 212 547 L 215 547 M 212 544 L 215 544 M 212 544 L 212 547 M 215 544 L 215 547 M 215 547 L 219 547 M 215 544 L 219 544 M 215 544 L 215 547 M 219 544 L 219 547 M 219 547 L 225 547 M 219 544 L 225 544 M 219 544 L 219 547 M 225 544 L 225 547 M 225 547 L 228 547 M 225 544 L 228 544 M 225 544 L 225 547 M 228 544 L 228 547 M 228 547 L 231 547 M 228 544 L 231 544 M 228 544 L 228 547 M 231 544 L 231 547 M 231 547 L 236 547 M 231 544 L 236 544 M 231 544 L 231 547 M 236 544 L 236 547 M 236 547 L 238 547 M 236 544 L 238 544 M 236 544 L 236 547 M 238 544 L 238 547 M 238 547 L 241 547 M 238 544 L 241 544 M 238 544 L 238 547 M 241 544 L 241 547 M 241 547 L 246 547 M 241 544 L 246 544 M 241 544 L 241 547 M 246 544 L 246 547 M 246 547 L 249 547 M 246 544 L 249 544 M 246 544 L 246 547 M 249 544 L 249 547 M 249 547 L 254 547 M 249 544 L 254 544 M 249 544 L 249 547 M 254 544 L 254 547 M 254 547 L 263 547 M 254 544 L 263 544 M 254 544 L 254 547 M 263 544 L 263 547 M 263 547 L 266 547 M 263 544 L 266 544 M 263 544 L 263 547 M 266 544 L 266 547 M 266 547 L 269 547 M 266 544 L 269 544 M 266 544 L 266 547 M 269 544 L 269 547 M 269 547 L 273 547 M 269 544 L 273 544 M 269 544 L 269 547 M 273 544 L 273 547 M 273 547 L 278 547 M 273 544 L 278 544 M 273 544 L 273 547 M 278 544 L 278 547 M 278 547 L 281 547 M 278 544 L 281 544 M 278 544 L 278 547 M 281 544 L 281 547 M 281 547 L 285 547 M 281 544 L 285 544 M 281 544 L 281 547 M 285 544 L 285 547 M 285 547 L 292 547 M 285 544 L 292 544 M 285 544 L 285 547 M 292 544 L 292 547 M 292 547 L 296 547 M 292 544 L 296 544 M 292 544 L 292 547 M 296 544 L 296 547 M 296 547 L 300 547 M 296 544 L 300 544 M 296 544 L 296 547 M 300 544 L 300 547 M 300 547 L 306 547 M 300 544 L 306 544 M 300 544 L 300 547 M 306 544 L 306 547 M 306 547 L 309 547 M 306 544 L 309 544 M 306 544 L 306 547 M 309 544 L 309 547 M 309 547 L 314 547 M 309 544 L 314 544 M 309 544 L 309 547 M 314 544 L 314 547 M 314 547 L 322 547 M 314 544 L 322 544 M 314 544 L 314 547 M 322 544 L 322 547 M 323 547 L 325 547 M 323 544 L 325 544 M 323 544 L 323 547 M 325 544 L 325 547 M 325 547 L 328 547 M 325 544 L 328 544 M 325 544 L 325 547 M 328 544 L 328 547 M 328 547 L 334 547 M 328 544 L 334 544 M 328 544 L 328 547 M 334 544 L 334 547 M 334 547 L 336 547 M 334 544 L 336 544 M 334 544 L 334 547 M 336 544 L 336 547 M 336 547 L 341 547 M 336 544 L 341 544 M 336 544 L 336 547 M 341 544 L 341 547 M 341 547 L 348 547 M 341 544 L 348 544 M 341 544 L 341 547 M 348 544 L 348 547 M 348 547 L 351 547 M 348 544 L 351 544 M 348 544 L 348 547 M 351 544 L 351 547 M 351 547 L 355 547 M 351 544 L 355 544 M 351 544 L 351 547 M 355 544 L 355 547 M 355 547 L 362 547 M 355 544 L 362 544 M 355 544 L 355 547 M 362 544 L 362 547 M 362 547 L 364 547 M 362 544 L 364 544 M 362 544 L 362 547 M 364 544 L 364 547 M 364 547 L 370 547 M 364 544 L 370 544 M 364 544 L 364 547 M 370 544 L 370 547 M 370 547 L 379 547 M 370 544 L 379 544 M 370 544 L 370 547 M 379 544 L 379 547 M 379 547 L 381 547 M 379 544 L 381 544 M 379 544 L 379 547 M 381 544 L 381 547 M 381 547 L 383 547 M 381 544 L 383 544 M 381 544 L 381 547 M 383 544 L 383 547 M 383 547 L 386 547 M 383 544 L 386 544 M 383 544 L 383 547 M 386 544 L 386 547 M 386 547 L 389 547 M 386 544 L 389 544 M 386 544 L 386 547 M 389 544 L 389 547 M 389 547 L 392 547 M 389 544 L 392 544 M 389 544 L 389 547 M 392 544 L 392 547 M 392 547 L 396 547 M 392 544 L 396 544 M 392 544 L 392 547 M 396 544 L 396 547 M 396 547 L 398 547 M 396 544 L 398 544 M 396 544 L 396 547 M 398 544 L 398 547 M 398 547 L 401 547 M 398 544 L 401 544 M 398 544 L 398 547 M 401 544 L 401 547 M 401 547 L 405 547 M 401 544 L 405 544 M 401 544 L 401 547 M 405 544 L 405 547 M 405 547 L 408 547 M 405 544 L 408 544 M 405 544 L 405 547 M 408 544 L 408 547 M 408 547 L 412 547 M 408 544 L 412 544 M 408 544 L 408 547 M 412 544 L 412 547 M 412 547 L 416 547 M 412 544 L 416 544 M 412 544 L 412 547 M 416 544 L 416 547 M 416 547 L 419 547 M 416 544 L 419 544 M 416 544 L 416 547 M 419 544 L 419 547 M 419 547 L 422 547 M 419 544 L 422 544 M 419 544 L 419 547 M 422 544 L 422 547 M 422 547 L 426 547 M 422 544 L 426 544 M 422 544 L 422 547 M 426 544 L 426 547 M 426 547 L 429 547 M 426 544 L 429 544 M 426 544 L 426 547 M 429 544 L 429 547 M 429 547 L 433 547 M 429 544 L 433 544 M 429 544 L 429 547 M 433 544 L 433 547 M 433 547 L 437 547 M 433 544 L 437 544 M 433 544 L 433 547 M 437 544 L 437 547 M 437 547 L 441 547 M 437 544 L 441 544 M 437 544 L 437 547 M 441 544 L 441 547 M 441 547 L 445 547 M 441 544 L 445 544 M 441 544 L 441 547 M 445 544 L 445 547 M 445 547 L 450 547 M 445 544 L 450 544 M 445 544 L 445 547 M 450 544 L 450 547 M 450 547 L 452 547 M 450 544 L 452 544 M 450 544 L 450 547 M 452 544 L 452 547 M 452 547 L 459 547 M 452 544 L 459 544 M 452 544 L 452 547 M 459 544 L 459 547 M 459 547 L 468 547 M 459 544 L 468 544 M 459 544 L 459 547 M 468 544 L 468 547 M 468 547 L 470 547 M 468 544 L 470 544 M 468 544 L 468 547 M 470 544 L 470 547 M 470 547 L 473 547 M 470 544 L 473 544 M 470 544 L 470 547 M 473 544 L 473 547 M 473 547 L 477 547 M 473 544 L 477 544 M 473 544 L 473 547 M 477 544 L 477 547 M 477 547 L 481 547 M 477 544 L 481 544 M 477 544 L 477 547 M 481 544 L 481 547 M 482 547 L 492 547 M 482 544 L 492 544 M 482 544 L 482 547 M 492 544 L 492 547 M 492 547 L 498 547 M 492 544 L 498 544 M 492 544 L 492 547 M 498 544 L 498 547 M 498 547 L 508 547 M 498 544 L 508 544 M 498 544 L 498 547 M 508 544 L 508 547 M 508 547 L 513 547 M 508 544 L 513 544 M 508 544 L 508 547 M 513 544 L 513 547 M 513 547 L 515 547 M 513 544 L 515 544 M 513 544 L 513 547 M 515 544 L 515 547 M 515 547 L 523 547 M 515 544 L 523 544 M 515 544 L 515 547 M 523 544 L 523 547 M 523 547 L 525 547 M 523 544 L 525 544 M 523 544 L 523 547 M 525 544 L 525 547 M 525 547 L 528 547 M 525 544 L 528 544 M 525 544 L 525 547 M 528 544 L 528 547 M 528 547 L 533 547 M 528 544 L 533 544 M 528 544 L 528 547 M 533 544 L 533 547 M 533 547 L 534 547 M 533 544 L 534 544 M 533 544 L 533 547 M 534 544 L 534 547 M 534 547 L 544 547 M 534 544 L 544 544 M 534 544 L 534 547 M 544 544 L 544 547 M 544 547 L 546 547 M 544 544 L 546 544 M 544 544 L 544 547 M 546 544 L 546 547 M 546 547 L 549 547 M 546 544 L 549 544 M 546 544 L 546 547 M 549 544 L 549 547 M 549 547 L 555 547 M 549 544 L 555 544 M 549 544 L 549 547 M 555 544 L 555 547 M 555 547 L 556 547 M 555 544 L 556 544 M 555 544 L 555 547 M 556 544 L 556 547 M 556 547 L 559 547 M 556 544 L 559 544 M 556 544 L 556 547 M 559 544 L 559 547 M 559 547 L 560 547 M 559 544 L 560 544 M 559 544 L 559 547 M 560 544 L 560 547 M 560 547 L 568 547 M 560 544 L 568 544 M 560 544 L 560 547 M 568 544 L 568 547 M 568 547 L 576 547 M 568 544 L 576 544 M 568 544 L 568 547 M 576 544 L 576 547 M 576 547 L 585 547 M 576 544 L 585 544 M 576 544 L 576 547 M 585 544 L 585 547 M 585 547 L 593 547 M 585 544 L 593 544 M 585 544 L 585 547 M 593 544 L 593 547 M 593 547 L 601 547 M 593 544 L 601 544 M 593 544 L 593 547 M 601 544 L 601 547 M 601 547 L 611 547 M 601 544 L 611 544 M 601 544 L 601 547 M 611 544 L 611 547 M 611 547 L 616 547 M 611 544 L 616 544 M 611 544 L 611 547 M 616 544 L 616 547 M 616 547 L 621 547 M 616 544 L 621 544 M 616 544 L 616 547 M 621 544 L 621 547 M 621 547 L 627 547 M 621 544 L 627 544 M 621 544 L 621 547 M 627 544 L 627 547 M 627 547 L 630 547 M 627 544 L 630 544 M 627 544 L 627 547 M 630 544 L 630 547 M 636 547 L 639 547 M 636 544 L 639 544 M 636 544 L 636 547 M 639 544 L 639 547 M 639 547 L 643 547 M 639 544 L 643 544 M 639 544 L 639 547 M 643 544 L 643 547 M 643 547 L 648 547 M 643 544 L 648 544 M 643 544 L 643 547 M 648 544 L 648 547 M 648 547 L 657 547 M 648 544 L 657 544 M 648 544 L 648 547 M 657 544 L 657 547 M 657 547 L 659 547 M 657 544 L 659 544 M 657 544 L 657 547 M 659 544 L 659 547 M 659 547 L 662 547 M 659 544 L 662 544 M 659 544 L 659 547 M 662 544 L 662 547 M 662 547 L 667 547 M 662 544 L 667 544 M 662 544 L 662 547 M 667 544 L 667 547 M 667 547 L 674 547 M 667 544 L 674 544 M 667 544 L 667 547 M 674 544 L 674 547 M 674 547 L 677 547 M 674 544 L 677 544 M 674 544 L 674 547 M 677 544 L 677 547 M 677 547 L 680 547 M 677 544 L 680 544 M 677 544 L 677 547 M 680 544 L 680 547 M 680 547 L 684 547 M 680 544 L 684 544 M 680 544 L 680 547 M 684 544 L 684 547 M 684 547 L 692 547 M 684 544 L 692 544 M 684 544 L 684 547 M 692 544 L 692 547 M 692 547 L 693 547 M 692 544 L 693 544 M 692 544 L 692 547 M 693 544 L 693 547 M 693 547 L 698 547 M 693 544 L 698 544 M 693 544 L 693 547 M 698 544 L 698 547 M 698 547 L 705 547 M 698 544 L 705 544 M 698 544 L 698 547 M 705 544 L 705 547 M 705 547 L 707 547 M 705 544 L 707 544 M 705 544 L 705 547 M 707 544 L 707 547 M 707 547 L 709 547 M 707 544 L 709 544 M 707 544 L 707 547 M 709 544 L 709 547 M 709 547 L 712 547 M 709 544 L 712 544 M 709 544 L 709 547 M 712 544 L 712 547 M 712 547 L 716 547 M 712 544 L 716 544 M 712 544 L 712 547 M 716 544 L 716 547 M 716 547 L 720 547 M 716 544 L 720 544 M 716 544 L 716 547 M 720 544 L 720 547 M 720 547 L 724 547 M 720 544 L 724 544 M 720 544 L 720 547 M 724 544 L 724 547 M 724 547 L 729 547 M 724 544 L 729 544 M 724 544 L 724 547 M 729 544 L 729 547 M 729 547 L 737 547 M 729 544 L 737 544 M 729 544 L 729 547 M 737 544 L 737 547 M 737 547 L 741 547 M 737 544 L 741 544 M 737 544 L 737 547 M 741 544 L 741 547 M 741 547 L 745 547 M 741 544 L 745 544 M 741 544 L 741 547 M 745 544 L 745 547 M 745 547 L 752 547 M 745 544 L 752 544 M 745 544 L 745 547 M 752 544 L 752 547 M 752 547 L 754 547 M 752 544 L 754 544 M 752 544 L 752 547 M 754 544 L 754 547 M 754 547 L 757 547 M 754 544 L 757 544 M 754 544 L 754 547 M 757 544 L 757 547 M 757 547 L 760 547 M 757 544 L 760 544 M 757 544 L 757 547 M 760 544 L 760 547 M 760 547 L 767 547 M 760 544 L 767 544 M 760 544 L 760 547 M 767 544 L 767 547 M 767 547 L 769 547 M 767 544 L 769 544 M 767 544 L 767 547 M 769 544 L 769 547 M 769 547 L 772 547 M 769 544 L 772 544 M 769 544 L 769 547 M 772 544 L 772 547 M 772 547 L 777 547 M 772 544 L 777 544 M 772 544 L 772 547 M 777 544 L 777 547 M 777 547 L 779 547 M 777 544 L 779 544 M 777 544 L 777 547 M 779 544 L 779 547 M 779 547 L 782 547 M 779 544 L 782 544 M 779 544 L 779 547 M 782 544 L 782 547 M 782 547 L 788 547 M 782 544 L 788 544 M 782 544 L 782 547 M 788 544 L 788 547 M 788 547 L 790 547 M 788 544 L 790 544 M 788 544 L 788 547 M 790 544 L 790 547 M 790 547 L 794 547 M 790 544 L 794 544 M 790 544 L 790 547 M 794 544 L 794 547 M 794 547 L 800 547 M 794 544 L 800 544 M 794 544 L 794 547 M 800 544 L 800 547 M 800 547 L 803 547 M 800 544 L 803 544 M 800 544 L 800 547 M 803 544 L 803 547 M 803 547 L 807 547 M 803 544 L 807 544 M 803 544 L 803 547 M 807 544 L 807 547 M 807 547 L 814 547 M 807 544 L 814 544 M 807 544 L 807 547 M 814 544 L 814 547 M 814 547 L 817 547 M 814 544 L 817 544 M 814 544 L 814 547 M 817 544 L 817 547 M 817 547 L 822 547 M 817 544 L 822 544 M 817 544 L 817 547 M 822 544 L 822 547 M 822 547 L 829 547 M 822 544 L 829 544 M 822 544 L 822 547 M 829 544 L 829 547 M 829 547 L 833 547 M 829 544 L 833 544 M 829 544 L 829 547 M 833 544 L 833 547 M 833 547 L 838 547 M 833 544 L 838 544 M 833 544 L 833 547 M 838 544 L 838 547 M 838 547 L 846 547 M 838 544 L 846 544 M 838 544 L 838 547 M 846 544 L 846 547 M 846 547 L 848 547 M 846 544 L 848 544 M 846 544 L 846 547 M 848 544 L 848 547 M 848 547 L 851 547 M 848 544 L 851 544 M 848 544 L 848 547 M 851 544 L 851 547 M 851 547 L 854 547 M 851 544 L 854 544 M 851 544 L 851 547 M 854 544 L 854 547 M 855 547 L 861 547 M 855 544 L 861 544 M 855 544 L 855 547 M 861 544 L 861 547 M 861 547 L 863 547 M 861 544 L 863 544 M 861 544 L 861 547 M 863 544 L 863 547 M 863 547 L 866 547 M 863 544 L 866 544 M 863 544 L 863 547 M 866 544 L 866 547 M 866 547 L 871 547 M 866 544 L 871 544 M 866 544 L 866 547 M 871 544 L 871 547 M 871 547 L 873 547 M 871 544 L 873 544 M 871 544 L 871 547 M 873 544 L 873 547 M 873 547 L 876 547 M 873 544 L 876 544 M 873 544 L 873 547 M 876 544 L 876 547 M 877 547 L 882 547 M 877 544 L 882 544 M 877 544 L 877 547 M 882 544 L 882 547 M 882 547 L 884 547 M 882 544 L 884 544 M 882 544 L 882 547 M 884 544 L 884 547 M 884 547 L 888 547 M 884 544 L 888 544 M 884 544 L 884 547 M 888 544 L 888 547 M 888 547 L 894 547 M 888 544 L 894 544 M 888 544 L 888 547 M 894 544 L 894 547 M 894 547 L 897 547 M 894 544 L 897 544 M 894 544 L 894 547 M 897 544 L 897 547 M 897 547 L 901 547 M 897 544 L 901 544 M 897 544 L 897 547 M 901 544 L 901 547 M 901 547 L 908 547 M 901 544 L 908 544 M 901 544 L 901 547 M 908 544 L 908 547 M 908 547 L 911 547 M 908 544 L 911 544 M 908 544 L 908 547 M 911 544 L 911 547 M 911 547 L 916 547 M 911 544 L 916 544 M 911 544 L 911 547 M 916 544 L 916 547 M 916 547 L 924 547 M 916 544 L 924 544 M 916 544 L 916 547 M 924 544 L 924 547 M 924 547 L 927 547 M 924 544 L 927 544 M 924 544 L 924 547 M 927 544 L 927 547 M 927 547 L 932 547 M 927 544 L 932 544 M 927 544 L 927 547 M 932 544 L 932 547 M 932 547 L 940 547 M 932 544 L 940 544 M 932 544 L 932 547 M 940 544 L 940 547 M 941 547 L 944 547 M 941 544 L 944 544 M 941 544 L 941 547 M 944 544 L 944 547 M 944 547 L 947 547 M 944 544 L 947 544 M 944 544 L 944 547 M 947 544 L 947 547 M 947 547 L 953 547 M 947 544 L 953 544 M 947 544 L 947 547 M 953 544 L 953 547 M 953 547 L 955 547 M 953 544 L 955 544 M 953 544 L 953 547 M 955 544 L 955 547 M 956 547 L 960 547 M 956 544 L 960 544 M 956 544 L 956 547 M 960 544 L 960 547 M 960 547 L 967 547 M 960 544 L 967 544 M 960 544 L 960 547 M 967 544 L 967 547 M 967 547 L 969 547 M 967 544 L 969 544 M 967 544 L 967 547 M 969 544 L 969 547 M 970 547 L 973 547 M 970 544 L 973 544 M 970 544 L 970 547 M 973 544 L 973 547 M 973 547 L 977 547 M 973 544 L 977 544 M 973 544 L 973 547 M 977 544 L 977 547 M 978 547 L 980 547 M 978 544 L 980 544 M 978 544 L 978 547 M 980 544 L 980 547 M 980 547 L 983 547 M 980 544 L 983 544 M 980 544 L 980 547 M 983 544 L 983 547 M 983 547 L 988 547 M 983 544 L 988 544 M 983 544 L 983 547 M 988 544 L 988 547 M 988 547 L 991 547 M 988 544 L 991 544 M 988 544 L 988 547 M 991 544 L 991 547 M 991 547 L 995 547 M 991 544 L 995 544 M 991 544 L 991 547 M 995 544 L 995 547 M 995 547 L 1000 547 M 995 544 L 1000 544 M 995 544 L 995 547 M 1000 544 L 1000 547 M 1000 547 L 1003 547 M 1000 544 L 1003 544 M 1000 544 L 1000 547 M 1003 544 L 1003 547 M 1003 547 L 1007 547 M 1003 544 L 1007 544 M 1003 544 L 1003 547 M 1007 544 L 1007 547 M 1007 547 L 1012 547 M 1007 544 L 1012 544 M 1007 544 L 1007 547 M 1012 544 L 1012 547 M 1013 547 L 1016 547 M 1013 544 L 1016 544 M 1013 544 L 1013 547 M 1016 544 L 1016 547 M 1016 547 L 1020 547 M 1016 544 L 1020 544 M 1016 544 L 1016 547 M 1020 544 L 1020 547 M 1020 547 L 1026 547 M 1020 544 L 1026 544 M 1020 544 L 1020 547 M 1026 544 L 1026 547 M 1026 547 L 1029 547 M 1026 544 L 1029 544 M 1026 544 L 1026 547 M 1029 544 L 1029 547 M 1029 547 L 1034 547 M 1029 544 L 1034 544 M 1029 544 L 1029 547 M 1034 544 L 1034 547 M 1034 547 L 1043 547 M 1034 544 L 1043 544 M 1034 544 L 1034 547 M 1043 544 L 1043 547 M 1043 547 L 1046 547 M 1043 544 L 1046 544 M 1043 544 L 1043 547 M 1046 544 L 1046 547 M 1046 547 L 1049 547 M 1046 544 L 1049 544 M 1046 544 L 1046 547 M 1049 544 L 1049 547 M 1049 547 L 1055 547 M 1049 544 L 1055 544 M 1049 544 L 1049 547 M 1055 544 L 1055 547 M 1055 547 L 1057 547 M 1055 544 L 1057 544 M 1055 544 L 1055 547 M 1057 544 L 1057 547 M 1057 547 L 1061 547 M 1057 544 L 1061 544 M 1057 544 L 1057 547 M 1061 544 L 1061 547 M 1061 547 L 1068 547 M 1061 544 L 1068 544 M 1061 544 L 1061 547 M 1068 544 L 1068 547 M 1068 547 L 1072 547 M 1068 544 L 1072 544 M 1068 544 L 1068 547 M 1072 544 L 1072 547 M 1072 547 L 1075 547 M 1072 544 L 1075 544 M 1072 544 L 1072 547 M 1075 544 L 1075 547 M 1075 547 L 1082 547 M 1075 544 L 1082 544 M 1075 544 L 1075 547 M 1082 544 L 1082 547 M 1082 547 L 1085 547 M 1082 544 L 1085 544 M 1082 544 L 1082 547 M 1085 544 L 1085 547 M 1085 547 L 1090 547 M 1085 544 L 1090 544 M 1085 544 L 1085 547 M 1090 544 L 1090 547 M 1090 547 L 1098 547 M 1090 544 L 1098 544 M 1090 544 L 1090 547 M 1098 544 L 1098 547 M 1099 547 L 1101 547 M 1099 544 L 1101 544 M 1099 544 L 1099 547 M 1101 544 L 1101 547 M 1101 547 L 1105 547 M 1101 544 L 1105 544 M 1101 544 L 1101 547 M 1105 544 L 1105 547 M 1105 547 L 1112 547 M 1105 544 L 1112 544 M 1105 544 L 1105 547 M 1112 544 L 1112 547 M 1112 547 L 1115 547 M 1112 544 L 1115 544 M 1112 544 L 1112 547 M 1115 544 L 1115 547 M 1115 547 L 1120 547 M 1115 544 L 1120 544 M 1115 544 L 1115 547 M 1120 544 L 1120 547 M 1120 547 L 1129 547 M 1120 544 L 1129 544 M 1120 544 L 1120 547 M 1129 544 L 1129 547 M 1129 547 L 1131 547 M 1129 544 L 1131 544 M 1129 544 L 1129 547 M 1131 544 L 1131 547 M 1131 547 L 1133 547 M 1131 544 L 1133 544 M 1131 544 L 1131 547 M 1133 544 L 1133 547 M 1133 547 L 1137 547 M 1133 544 L 1137 544 M 1133 544 L 1133 547 M 1137 544 L 1137 547 M 1137 547 L 1139 547 M 1137 544 L 1139 544 M 1137 544 L 1137 547 M 1139 544 L 1139 547 M 1139 547 L 1142 547 M 1139 544 L 1142 544 M 1139 544 L 1139 547 M 1142 544 L 1142 547 M 1143 547 L 1146 547 M 1143 544 L 1146 544 M 1143 544 L 1143 547 M 1146 544 L 1146 547 M 1146 547 L 1149 547 M 1146 544 L 1149 544 M 1146 544 L 1146 547 M 1149 544 L 1149 547 M 1149 547 L 1152 547 M 1149 544 L 1152 544 M 1149 544 L 1149 547 M 1152 544 L 1152 547 M 1152 547 L 1155 547 M 1152 544 L 1155 544 M 1152 544 L 1152 547 M 1155 544 L 1155 547 M 1155 547 L 1159 547 M 1155 544 L 1159 544 M 1155 544 L 1155 547 M 1159 544 L 1159 547 M 1159 547 L 1162 547 M 1159 544 L 1162 544 M 1159 544 L 1159 547 M 1162 544 L 1162 547 M 1162 547 L 1166 547 M 1162 544 L 1166 544 M 1162 544 L 1162 547 M 1166 544 L 1166 547 M 1166 547 L 1168 547 M 1166 544 L 1168 544 M 1166 544 L 1166 547 M 1168 544 L 1168 547 M 1168 547 L 1171 547 M 1168 544 L 1171 544 M 1168 544 L 1168 547 M 1171 544 L 1171 547 M 1172 547 L 1175 547 M 1172 544 L 1175 544 M 1172 544 L 1172 547 M 1175 544 L 1175 547 M 1175 547 L 1179 547 M 1175 544 L 1179 544 M 1175 544 L 1175 547 M 1179 544 L 1179 547 M 1179 547 L 1182 547 M 1179 544 L 1182 544 M 1179 544 L 1179 547 M 1182 544 L 1182 547 M 1182 547 L 1187 547 M 1182 544 L 1187 544 M 1182 544 L 1182 547 M 1187 544 L 1187 547 M 1187 547 L 1191 547 M 1187 544 L 1191 544 M 1187 544 L 1187 547 M 1191 544 L 1191 547 M 1191 547 L 1195 547 M 1191 544 L 1195 544 M 1191 544 L 1191 547 M 1195 544 L 1195 547 M 1195 547 L 1200 547 M 1195 544 L 1200 544 M 1195 544 L 1195 547 M 1200 544 L 1200 547 M 1200 547 L 1212 547 M 1200 544 L 1212 544 M 1200 544 L 1200 547 M 1212 544 L 1212 547 M 1212 547 L 1223 547 M 1212 544 L 1223 544 M 1212 544 L 1212 547 M 1223 544 L 1223 547 M 1223 547 L 1235 547 M 1223 544 L 1235 544 M 1223 544 L 1223 547 M 1235 544 L 1235 547 M 1235 547 L 1245 547 M 1235 544 L 1245 544 M 1235 544 L 1235 547 M 1245 544 L 1245 547 M 1245 547 L 1255 547 M 1245 544 L 1255 544 M 1245 544 L 1245 547 M 1255 544 L 1255 547 M 1255 547 L 1266 547 M 1255 544 L 1266 544 M 1255 544 L 1255 547 M 1266 544 L 1266 547 M 1266 547 L 1277 547 M 1266 544 L 1277 544 M 1266 544 L 1266 547 M 1277 544 L 1277 547 M 1277 547 L 1289 547 M 1277 544 L 1289 544 M 1277 544 L 1277 547 M 1289 544 L 1289 547 M 1289 547 L 1300 547 M 1289 544 L 1300 544 M 1289 544 L 1289 547 M 1300 544 L 1300 547 M 1300 547 L 1311 547 M 1300 544 L 1311 544 M 1300 544 L 1300 547 M 1311 544 L 1311 547 M 1311 547 L 1323 547 M 1311 544 L 1323 544 M 1311 544 L 1311 547 M 1323 544 L 1323 547 M 1323 547 L 1332 547 M 1323 544 L 1332 544 M 1323 544 L 1323 547 M 1332 544 L 1332 547 M 1332 547 L 1343 547 M 1332 544 L 1343 544 M 1332 544 L 1332 547 M 1343 544 L 1343 547 M 1343 547 L 1351 547 M 1343 544 L 1351 544 M 1343 544 L 1343 547 M 1351 544 L 1351 547 M 1351 547 L 1360 547 M 1351 544 L 1360 544 M 1351 544 L 1351 547 M 1360 544 L 1360 547 M 1360 547 L 1369 547 M 1360 544 L 1369 544 M 1360 544 L 1360 547 M 1369 544 L 1369 547 M 1369 547 L 1375 547 M 1369 544 L 1375 544 M 1369 544 L 1369 547 M 1375 544 L 1375 547 M 1375 547 L 1382 547 M 1375 544 L 1382 544 M 1375 544 L 1375 547 M 1382 544 L 1382 547 M 1382 547 L 1389 547 M 1382 544 L 1389 544 M 1382 544 L 1382 547 M 1389 544 L 1389 547 M 1389 547 L 1401 547 M 1389 544 L 1401 544 M 1389 544 L 1389 547 M 1401 544 L 1401 547 M 1401 547 L 1414 547 M 1401 544 L 1414 544 M 1401 544 L 1401 547 M 1414 544 L 1414 547 M 1414 547 L 1417 547 M 1414 544 L 1417 544 M 1414 544 L 1414 547 M 1417 544 L 1417 547 M 1417 547 L 1422 547 M 1417 544 L 1422 544 M 1417 544 L 1417 547 M 1422 544 L 1422 547 M 1422 547 L 1431 547 M 1422 544 L 1431 544 M 1422 544 L 1422 547 M 1431 544 L 1431 547 M 1431 547 L 1438 547 M 1431 544 L 1438 544 M 1431 544 L 1431 547 M 1438 544 L 1438 547 M 1438 547 L 1446 547 M 1438 544 L 1446 544 M 1438 544 L 1438 547 M 1446 544 L 1446 547 M 1446 547 L 1454 547 M 1446 544 L 1454 544 M 1446 544 L 1446 547 M 1454 544 L 1454 547 M 1454 547 L 1457 547 M 1454 544 L 1457 544 M 1454 544 L 1454 547 M 1457 544 L 1457 547 M 1457 547 L 1463 547 M 1457 544 L 1463 544 M 1457 544 L 1457 547 M 1463 544 L 1463 547 M 1463 547 L 1471 547 M 1463 544 L 1471 544 M 1463 544 L 1463 547 M 1471 544 L 1471 547 M 1471 547 L 1479 547 M 1471 544 L 1479 544 M 1471 544 L 1471 547 M 1479 544 L 1479 547 M 1479 547 L 1487 547 M 1479 544 L 1487 544 M 1479 544 L 1479 547 M 1487 544 L 1487 547 M 1487 547 L 1495 547 M 1487 544 L 1495 544 M 1487 544 L 1487 547 M 1495 544 L 1495 547 M 1495 547 L 1506 547 M 1495 544 L 1506 544 M 1495 544 L 1495 547 M 1506 544 L 1506 547 M 1506 547 L 1508 547 M 1506 544 L 1508 544 M 1506 544 L 1506 547 M 1508 544 L 1508 547 M 1509 547 L 1511 547 M 1509 544 L 1511 544 M 1509 544 L 1509 547 M 1511 544 L 1511 547 M 1511 547 L 1514 547 M 1511 544 L 1514 544 M 1511 544 L 1511 547 M 1514 544 L 1514 547 M 1514 547 L 1516 547 M 1514 544 L 1516 544 M 1514 544 L 1514 547 M 1516 544 L 1516 547 M 1516 547 L 1518 547 M 1516 544 L 1518 544 M 1516 544 L 1516 547 M 1518 544 L 1518 547 M 1518 547 L 1521 547 M 1518 544 L 1521 544 M 1518 544 L 1518 547 M 1521 544 L 1521 547 M 1521 547 L 1526 547 M 1521 544 L 1526 544 M 1521 544 L 1521 547 M 1526 544 L 1526 547 M 1526 547 L 1534 547 M 1526 544 L 1534 544 M 1526 544 L 1526 547 M 1534 544 L 1534 547 M 1534 547 L 1548 547 M 1534 544 L 1548 544 M 1534 544 L 1534 547 M 1548 544 L 1548 547 M 1564 547 L 1567 547 M 1564 544 L 1567 544 M 1564 544 L 1564 547 M 1567 544 L 1567 547 M 1562 547 L 1564 547 M 1562 544 L 1564 544 M 1562 544 L 1562 547 M 1564 544 L 1564 547 M 1562 547 L 1563 547 M 1562 544 L 1563 544 M 1562 544 L 1562 547 M 1563 544 L 1563 547 M 1561 547 L 1562 547 M 1561 544 L 1562 544 M 1561 544 L 1561 547 M 1562 544 L 1562 547 M 1557 547 L 1561 547 M 1557 544 L 1561 544 M 1557 544 L 1557 547 M 1561 544 L 1561 547 M 1554 547 L 1557 547 M 1554 544 L 1557 544 M 1554 544 L 1554 547 M 1557 544 L 1557 547 M 1551 547 L 1554 547 M 1551 544 L 1554 544 M 1551 544 L 1551 547 M 1554 544 L 1554 547 M 1549 547 L 1551 547 M 1549 544 L 1551 544 M 1549 544 L 1549 547 M 1551 544 L 1551 547 M 1548 547 L 1549 547 M 1548 544 L 1549 544 M 1548 544 L 1548 547 M 1549 544 L 1549 547 M 352 549 L 353 549 M 352 547 L 353 547 M 352 547 L 352 549 M 353 547 L 353 549 M 345 549 L 346 549 M 345 547 L 346 547 M 345 547 L 345 549 M 346 547 L 346 549 M 339 549 L 339 549 M 339 547 L 339 547 M 339 547 L 339 549 M 339 547 L 339 549 M 332 549 L 333 549 M 332 547 L 333 547 M 332 547 L 332 549 M 333 547 L 333 549 M 327 549 L 327 549 M 327 547 L 327 547 M 327 547 L 327 549 M 327 547 L 327 549 M 321 549 L 322 549 M 321 547 L 322 547 M 321 547 L 321 549 M 322 547 L 322 549 M 316 549 L 317 549 M 316 547 L 317 547 M 316 547 L 316 549 M 317 547 L 317 549 M 311 549 L 311 549 M 311 547 L 311 547 M 311 547 L 311 549 M 311 547 L 311 549 M 306 549 L 306 549 M 306 547 L 306 547 M 306 547 L 306 549 M 306 547 L 306 549 M 295 549 L 296 549 M 295 547 L 296 547 M 295 547 L 295 549 M 296 547 L 296 549 M 290 549 L 291 549 M 290 547 L 291 547 M 290 547 L 290 549 M 291 547 L 291 549 M 277 549 L 278 549 M 277 547 L 278 547 M 277 547 L 277 549 M 278 547 L 278 549 M 268 549 L 268 549 M 268 547 L 268 547 M 268 547 L 268 549 M 268 547 L 268 549 M 255 549 L 256 549 M 255 547 L 256 547 M 255 547 L 255 549 M 256 547 L 256 549 M 246 549 L 247 549 M 246 547 L 247 547 M 246 547 L 246 549 M 247 547 L 247 549 M 241 549 L 241 549 M 241 547 L 241 547 M 241 547 L 241 549 M 241 547 L 241 549 M 226 549 L 227 549 M 226 547 L 227 547 M 226 547 L 226 549 M 227 547 L 227 549 M 213 549 L 214 549 M 213 547 L 214 547 M 213 547 L 213 549 M 214 547 L 214 549 M 206 549 L 207 549 M 206 547 L 207 547 M 206 547 L 206 549 M 207 547 L 207 549 M 199 549 L 200 549 M 199 547 L 200 547 M 199 547 L 199 549 M 200 547 L 200 549 M 196 549 L 196 549 M 196 547 L 196 547 M 196 547 L 196 549 M 196 547 L 196 549 M 190 549 L 191 549 M 190 547 L 191 547 M 190 547 L 190 549 M 191 547 L 191 549 M 186 549 L 186 549 M 186 547 L 186 547 M 186 547 L 186 549 M 186 547 L 186 549 M 180 549 L 180 549 M 180 547 L 180 547 M 180 547 L 180 549 M 180 547 L 180 549 M 632 547 L 633 547 M 632 544 L 633 544 M 632 544 L 632 547 M 633 544 L 633 547 M 629 547 L 630 547 M 629 544 L 630 544 M 629 544 L 629 547 M 630 544 L 630 547 M 1742 547 L 1743 547 M 1742 544 L 1743 544 M 1742 544 L 1742 547 M 1743 544 L 1743 547 M 1742 549 L 1743 549 M 1742 547 L 1743 547 M 1742 547 L 1742 549 M 1743 547 L 1743 549 M 1703 549 L 1703 549 M 1703 547 L 1703 547 M 1703 547 L 1703 549 M 1703 547 L 1703 549 M 1683 549 L 1683 549 M 1683 547 L 1683 547 M 1683 547 L 1683 549 M 1683 547 L 1683 549 M 1650 549 L 1651 549 M 1650 547 L 1651 547 M 1650 547 L 1650 549 M 1651 547 L 1651 549 M 1669 549 L 1670 549 M 1669 547 L 1670 547 M 1669 547 L 1669 549 M 1670 547 L 1670 549 M 1645 547 L 1646 547 M 1645 544 L 1646 544 M 1645 544 L 1645 547 M 1646 544 L 1646 547 M 1641 547 L 1642 547 M 1641 544 L 1642 544 M 1641 544 L 1641 547 M 1642 544 L 1642 547 M 1637 547 L 1638 547 M 1637 544 L 1638 544 M 1637 544 L 1637 547 M 1638 544 L 1638 547 M 1703 547 L 1703 547 M 1703 544 L 1703 544 M 1703 544 L 1703 547 M 1703 544 L 1703 547 M 1683 547 L 1683 547 M 1683 544 L 1683 544 M 1683 544 L 1683 547 M 1683 544 L 1683 547 M 1669 547 L 1670 547 M 1669 544 L 1670 544 M 1669 544 L 1669 547 M 1670 544 L 1670 547 M 1650 547 L 1651 547 M 1650 544 L 1651 544 M 1650 544 L 1650 547 M 1651 544 L 1651 547 M 1617 547 L 1618 547 M 1617 544 L 1618 544 M 1617 544 L 1617 547 M 1618 544 L 1618 547 M 1604 547 L 1605 547 M 1604 544 L 1605 544 M 1604 544 L 1604 547 M 1605 544 L 1605 547 M 1574 547 L 1575 547 M 1574 544 L 1575 544 M 1574 544 L 1574 547 M 1575 544 L 1575 547 M 1584 547 L 1585 547 M 1584 544 L 1585 544 M 1584 544 L 1584 547 M 1585 544 L 1585 547 M 1549 547 L 1550 547 M 1549 544 L 1550 544 M 1549 544 L 1549 547 M 1550 544 L 1550 547 M 1551 547 L 1551 547 M 1551 544 L 1551 544 M 1551 544 L 1551 547 M 1551 544 L 1551 547 M 1553 547 L 1554 547 M 1553 544 L 1554 544 M 1553 544 L 1553 547 M 1554 544 L 1554 547 M 1556 547 L 1557 547 M 1556 544 L 1557 544 M 1556 544 L 1556 547 M 1557 544 L 1557 547 M 1567 547 L 1567 547 M 1567 544 L 1567 544 M 1567 544 L 1567 547 M 1567 544 L 1567 547 M 1561 547 L 1562 547 M 1561 544 L 1562 544 M 1561 544 L 1561 547 M 1562 544 L 1562 547 M 1548 547 L 1548 547 M 1548 544 L 1548 544 M 1548 544 L 1548 547 M 1548 544 L 1548 547 M 1533 547 L 1534 547 M 1533 544 L 1534 544 M 1533 544 L 1533 547 M 1534 544 L 1534 547 M 1526 547 L 1526 547 M 1526 544 L 1526 544 M 1526 544 L 1526 547 M 1526 544 L 1526 547 M 1521 547 L 1522 547 M 1521 544 L 1522 544 M 1521 544 L 1521 547 M 1522 544 L 1522 547 M 1518 547 L 1519 547 M 1518 544 L 1519 544 M 1518 544 L 1518 547 M 1519 544 L 1519 547 M 1516 547 L 1517 547 M 1516 544 L 1517 544 M 1516 544 L 1516 547 M 1517 544 L 1517 547 M 1514 547 L 1514 547 M 1514 544 L 1514 544 M 1514 544 L 1514 547 M 1514 544 L 1514 547 M 1511 547 L 1512 547 M 1511 544 L 1512 544 M 1511 544 L 1511 547 M 1512 544 L 1512 547 M 1508 547 L 1509 547 M 1508 544 L 1509 544 M 1508 544 L 1508 547 M 1509 544 L 1509 547 M 1506 547 L 1507 547 M 1506 544 L 1507 544 M 1506 544 L 1506 547 M 1507 544 L 1507 547 M 1495 547 L 1496 547 M 1495 544 L 1496 544 M 1495 544 L 1495 547 M 1496 544 L 1496 547 M 1487 547 L 1487 547 M 1487 544 L 1487 544 M 1487 544 L 1487 547 M 1487 544 L 1487 547 M 1479 547 L 1479 547 M 1479 544 L 1479 544 M 1479 544 L 1479 547 M 1479 544 L 1479 547 M 1471 547 L 1472 547 M 1471 544 L 1472 544 M 1471 544 L 1471 547 M 1472 544 L 1472 547 M 1462 547 L 1463 547 M 1462 544 L 1463 544 M 1462 544 L 1462 547 M 1463 544 L 1463 547 M 1457 547 L 1458 547 M 1457 544 L 1458 544 M 1457 544 L 1457 547 M 1458 544 L 1458 547 M 1454 547 L 1455 547 M 1454 544 L 1455 544 M 1454 544 L 1454 547 M 1455 544 L 1455 547 M 1446 547 L 1446 547 M 1446 544 L 1446 544 M 1446 544 L 1446 547 M 1446 544 L 1446 547 M 1438 547 L 1439 547 M 1438 544 L 1439 544 M 1438 544 L 1438 547 M 1439 544 L 1439 547 M 1431 547 L 1431 547 M 1431 544 L 1431 544 M 1431 544 L 1431 547 M 1431 544 L 1431 547 M 1422 547 L 1422 547 M 1422 544 L 1422 544 M 1422 544 L 1422 547 M 1422 544 L 1422 547 M 1417 547 L 1417 547 M 1417 544 L 1417 544 M 1417 544 L 1417 547 M 1417 544 L 1417 547 M 1413 547 L 1414 547 M 1413 544 L 1414 544 M 1413 544 L 1413 547 M 1414 544 L 1414 547 M 1401 547 L 1401 547 M 1401 544 L 1401 544 M 1401 544 L 1401 547 M 1401 544 L 1401 547 M 1389 547 L 1389 547 M 1389 544 L 1389 544 M 1389 544 L 1389 547 M 1389 544 L 1389 547 M 1381 547 L 1382 547 M 1381 544 L 1382 544 M 1381 544 L 1381 547 M 1382 544 L 1382 547 M 1375 547 L 1376 547 M 1375 544 L 1376 544 M 1375 544 L 1375 547 M 1376 544 L 1376 547 M 1369 547 L 1370 547 M 1369 544 L 1370 544 M 1369 544 L 1369 547 M 1370 544 L 1370 547 M 1360 547 L 1360 547 M 1360 544 L 1360 544 M 1360 544 L 1360 547 M 1360 544 L 1360 547 M 1351 547 L 1352 547 M 1351 544 L 1352 544 M 1351 544 L 1351 547 M 1352 544 L 1352 547 M 1342 547 L 1343 547 M 1342 544 L 1343 544 M 1342 544 L 1342 547 M 1343 544 L 1343 547 M 1332 547 L 1333 547 M 1332 544 L 1333 544 M 1332 544 L 1332 547 M 1333 544 L 1333 547 M 1323 547 L 1323 547 M 1323 544 L 1323 544 M 1323 544 L 1323 547 M 1323 544 L 1323 547 M 1311 547 L 1311 547 M 1311 544 L 1311 544 M 1311 544 L 1311 547 M 1311 544 L 1311 547 M 1299 547 L 1300 547 M 1299 544 L 1300 544 M 1299 544 L 1299 547 M 1300 544 L 1300 547 M 1289 547 L 1290 547 M 1289 544 L 1290 544 M 1289 544 L 1289 547 M 1290 544 L 1290 547 M 1277 547 L 1277 547 M 1277 544 L 1277 544 M 1277 544 L 1277 547 M 1277 544 L 1277 547 M 1265 547 L 1266 547 M 1265 544 L 1266 544 M 1265 544 L 1265 547 M 1266 544 L 1266 547 M 1255 547 L 1255 547 M 1255 544 L 1255 544 M 1255 544 L 1255 547 M 1255 544 L 1255 547 M 1245 547 L 1245 547 M 1245 544 L 1245 544 M 1245 544 L 1245 547 M 1245 544 L 1245 547 M 1234 547 L 1235 547 M 1234 544 L 1235 544 M 1234 544 L 1234 547 M 1235 544 L 1235 547 M 1223 547 L 1224 547 M 1223 544 L 1224 544 M 1223 544 L 1223 547 M 1224 544 L 1224 547 M 1212 547 L 1212 547 M 1212 544 L 1212 544 M 1212 544 L 1212 547 M 1212 544 L 1212 547 M 1200 547 L 1200 547 M 1200 544 L 1200 544 M 1200 544 L 1200 547 M 1200 544 L 1200 547 M 1195 547 L 1195 547 M 1195 544 L 1195 544 M 1195 544 L 1195 547 M 1195 544 L 1195 547 M 1190 547 L 1191 547 M 1190 544 L 1191 544 M 1190 544 L 1190 547 M 1191 544 L 1191 547 M 1187 547 L 1187 547 M 1187 544 L 1187 544 M 1187 544 L 1187 547 M 1187 544 L 1187 547 M 1182 547 L 1183 547 M 1182 544 L 1183 544 M 1182 544 L 1182 547 M 1183 544 L 1183 547 M 1179 547 L 1179 547 M 1179 544 L 1179 544 M 1179 544 L 1179 547 M 1179 544 L 1179 547 M 1175 547 L 1176 547 M 1175 544 L 1176 544 M 1175 544 L 1175 547 M 1176 544 L 1176 547 M 1171 547 L 1172 547 M 1171 544 L 1172 544 M 1171 544 L 1171 547 M 1172 544 L 1172 547 M 1168 547 L 1169 547 M 1168 544 L 1169 544 M 1168 544 L 1168 547 M 1169 544 L 1169 547 M 1165 547 L 1166 547 M 1165 544 L 1166 544 M 1165 544 L 1165 547 M 1166 544 L 1166 547 M 1161 547 L 1162 547 M 1161 544 L 1162 544 M 1161 544 L 1161 547 M 1162 544 L 1162 547 M 1158 547 L 1159 547 M 1158 544 L 1159 544 M 1158 544 L 1158 547 M 1159 544 L 1159 547 M 1155 547 L 1156 547 M 1155 544 L 1156 544 M 1155 544 L 1155 547 M 1156 544 L 1156 547 M 1151 547 L 1152 547 M 1151 544 L 1152 544 M 1151 544 L 1151 547 M 1152 544 L 1152 547 M 1148 547 L 1149 547 M 1148 544 L 1149 544 M 1148 544 L 1148 547 M 1149 544 L 1149 547 M 1146 547 L 1147 547 M 1146 544 L 1147 544 M 1146 544 L 1146 547 M 1147 544 L 1147 547 M 1142 547 L 1143 547 M 1142 544 L 1143 544 M 1142 544 L 1142 547 M 1143 544 L 1143 547 M 1139 547 L 1140 547 M 1139 544 L 1140 544 M 1139 544 L 1139 547 M 1140 544 L 1140 547 M 1136 547 L 1137 547 M 1136 544 L 1137 544 M 1136 544 L 1136 547 M 1137 544 L 1137 547 M 1133 547 L 1134 547 M 1133 544 L 1134 544 M 1133 544 L 1133 547 M 1134 544 L 1134 547 M 1131 547 L 1131 547 M 1131 544 L 1131 544 M 1131 544 L 1131 547 M 1131 544 L 1131 547 M 1129 547 L 1129 547 M 1129 544 L 1129 544 M 1129 544 L 1129 547 M 1129 544 L 1129 547 M 1120 547 L 1120 547 M 1120 544 L 1120 544 M 1120 544 L 1120 547 M 1120 544 L 1120 547 M 1115 547 L 1115 547 M 1115 544 L 1115 544 M 1115 544 L 1115 547 M 1115 544 L 1115 547 M 1112 547 L 1112 547 M 1112 544 L 1112 544 M 1112 544 L 1112 547 M 1112 544 L 1112 547 M 1105 547 L 1105 547 M 1105 544 L 1105 544 M 1105 544 L 1105 547 M 1105 544 L 1105 547 M 1101 547 L 1101 547 M 1101 544 L 1101 544 M 1101 544 L 1101 547 M 1101 544 L 1101 547 M 1098 547 L 1099 547 M 1098 544 L 1099 544 M 1098 544 L 1098 547 M 1099 544 L 1099 547 M 1089 547 L 1090 547 M 1089 544 L 1090 544 M 1089 544 L 1089 547 M 1090 544 L 1090 547 M 1085 547 L 1085 547 M 1085 544 L 1085 544 M 1085 544 L 1085 547 M 1085 544 L 1085 547 M 1081 547 L 1082 547 M 1081 544 L 1082 544 M 1081 544 L 1081 547 M 1082 544 L 1082 547 M 1075 547 L 1076 547 M 1075 544 L 1076 544 M 1075 544 L 1075 547 M 1076 544 L 1076 547 M 1071 547 L 1072 547 M 1071 544 L 1072 544 M 1071 544 L 1071 547 M 1072 544 L 1072 547 M 1068 547 L 1068 547 M 1068 544 L 1068 544 M 1068 544 L 1068 547 M 1068 544 L 1068 547 M 1061 547 L 1062 547 M 1061 544 L 1062 544 M 1061 544 L 1061 547 M 1062 544 L 1062 547 M 1057 547 L 1058 547 M 1057 544 L 1058 544 M 1057 544 L 1057 547 M 1058 544 L 1058 547 M 1054 547 L 1055 547 M 1054 544 L 1055 544 M 1054 544 L 1054 547 M 1055 544 L 1055 547 M 1049 547 L 1050 547 M 1049 544 L 1050 544 M 1049 544 L 1049 547 M 1050 544 L 1050 547 M 1045 547 L 1046 547 M 1045 544 L 1046 544 M 1045 544 L 1045 547 M 1046 544 L 1046 547 M 1042 547 L 1043 547 M 1042 544 L 1043 544 M 1042 544 L 1042 547 M 1043 544 L 1043 547 M 1034 547 L 1034 547 M 1034 544 L 1034 544 M 1034 544 L 1034 547 M 1034 544 L 1034 547 M 1029 547 L 1030 547 M 1029 544 L 1030 544 M 1029 544 L 1029 547 M 1030 544 L 1030 547 M 1026 547 L 1026 547 M 1026 544 L 1026 544 M 1026 544 L 1026 547 M 1026 544 L 1026 547 M 1020 547 L 1020 547 M 1020 544 L 1020 544 M 1020 544 L 1020 547 M 1020 544 L 1020 547 M 1016 547 L 1016 547 M 1016 544 L 1016 544 M 1016 544 L 1016 547 M 1016 544 L 1016 547 M 1012 547 L 1013 547 M 1012 544 L 1013 544 M 1012 544 L 1012 547 M 1013 544 L 1013 547 M 1006 547 L 1007 547 M 1006 544 L 1007 544 M 1006 544 L 1006 547 M 1007 544 L 1007 547 M 1002 547 L 1003 547 M 1002 544 L 1003 544 M 1002 544 L 1002 547 M 1003 544 L 1003 547 M 1000 547 L 1000 547 M 1000 544 L 1000 544 M 1000 544 L 1000 547 M 1000 544 L 1000 547 M 994 547 L 995 547 M 994 544 L 995 544 M 994 544 L 994 547 M 995 544 L 995 547 M 991 547 L 991 547 M 991 544 L 991 544 M 991 544 L 991 547 M 991 544 L 991 547 M 988 547 L 988 547 M 988 544 L 988 544 M 988 544 L 988 547 M 988 544 L 988 547 M 982 547 L 983 547 M 982 544 L 983 544 M 982 544 L 982 547 M 983 544 L 983 547 M 979 547 L 980 547 M 979 544 L 980 544 M 979 544 L 979 547 M 980 544 L 980 547 M 977 547 L 978 547 M 977 544 L 978 544 M 977 544 L 977 547 M 978 544 L 978 547 M 972 547 L 973 547 M 972 544 L 973 544 M 972 544 L 972 547 M 973 544 L 973 547 M 969 547 L 970 547 M 969 544 L 970 544 M 969 544 L 969 547 M 970 544 L 970 547 M 966 547 L 967 547 M 966 544 L 967 544 M 966 544 L 966 547 M 967 544 L 967 547 M 959 547 L 960 547 M 959 544 L 960 544 M 959 544 L 959 547 M 960 544 L 960 547 M 955 547 L 956 547 M 955 544 L 956 544 M 955 544 L 955 547 M 956 544 L 956 547 M 953 547 L 953 547 M 953 544 L 953 544 M 953 544 L 953 547 M 953 544 L 953 547 M 947 547 L 948 547 M 947 544 L 948 544 M 947 544 L 947 547 M 948 544 L 948 547 M 944 547 L 944 547 M 944 544 L 944 544 M 944 544 L 944 547 M 944 544 L 944 547 M 940 547 L 941 547 M 940 544 L 941 544 M 940 544 L 940 547 M 941 544 L 941 547 M 932 547 L 933 547 M 932 544 L 933 544 M 932 544 L 932 547 M 933 544 L 933 547 M 927 547 L 928 547 M 927 544 L 928 544 M 927 544 L 927 547 M 928 544 L 928 547 M 923 547 L 924 547 M 923 544 L 924 544 M 923 544 L 923 547 M 924 544 L 924 547 M 916 547 L 916 547 M 916 544 L 916 544 M 916 544 L 916 547 M 916 544 L 916 547 M 911 547 L 911 547 M 911 544 L 911 544 M 911 544 L 911 547 M 911 544 L 911 547 M 908 547 L 908 547 M 908 544 L 908 544 M 908 544 L 908 547 M 908 544 L 908 547 M 901 547 L 901 547 M 901 544 L 901 544 M 901 544 L 901 547 M 901 544 L 901 547 M 896 547 L 897 547 M 896 544 L 897 544 M 896 544 L 896 547 M 897 544 L 897 547 M 894 547 L 895 547 M 894 544 L 895 544 M 894 544 L 894 547 M 895 544 L 895 547 M 888 547 L 889 547 M 888 544 L 889 544 M 888 544 L 888 547 M 889 544 L 889 547 M 884 547 L 885 547 M 884 544 L 885 544 M 884 544 L 884 547 M 885 544 L 885 547 M 881 547 L 882 547 M 881 544 L 882 544 M 881 544 L 881 547 M 882 544 L 882 547 M 876 547 L 877 547 M 876 544 L 877 544 M 876 544 L 876 547 M 877 544 L 877 547 M 873 547 L 873 547 M 873 544 L 873 544 M 873 544 L 873 547 M 873 544 L 873 547 M 871 547 L 871 547 M 871 544 L 871 544 M 871 544 L 871 547 M 871 544 L 871 547 M 866 547 L 867 547 M 866 544 L 867 544 M 866 544 L 866 547 M 867 544 L 867 547 M 863 547 L 864 547 M 863 544 L 864 544 M 863 544 L 863 547 M 864 544 L 864 547 M 861 547 L 861 547 M 861 544 L 861 544 M 861 544 L 861 547 M 861 544 L 861 547 M 854 547 L 855 547 M 854 544 L 855 544 M 854 544 L 854 547 M 855 544 L 855 547 M 850 547 L 851 547 M 850 544 L 851 544 M 850 544 L 850 547 M 851 544 L 851 547 M 848 547 L 849 547 M 848 544 L 849 544 M 848 544 L 848 547 M 849 544 L 849 547 M 846 547 L 847 547 M 846 544 L 847 544 M 846 544 L 846 547 M 847 544 L 847 547 M 838 547 L 838 547 M 838 544 L 838 544 M 838 544 L 838 547 M 838 544 L 838 547 M 832 547 L 833 547 M 832 544 L 833 544 M 832 544 L 832 547 M 833 544 L 833 547 M 829 547 L 830 547 M 829 544 L 830 544 M 829 544 L 829 547 M 830 544 L 830 547 M 821 547 L 822 547 M 821 544 L 822 544 M 821 544 L 821 547 M 822 544 L 822 547 M 816 547 L 817 547 M 816 544 L 817 544 M 816 544 L 816 547 M 817 544 L 817 547 M 814 547 L 814 547 M 814 544 L 814 544 M 814 544 L 814 547 M 814 544 L 814 547 M 807 547 L 807 547 M 807 544 L 807 544 M 807 544 L 807 547 M 807 544 L 807 547 M 802 547 L 803 547 M 802 544 L 803 544 M 802 544 L 802 547 M 803 544 L 803 547 M 800 547 L 801 547 M 800 544 L 801 544 M 800 544 L 800 547 M 801 544 L 801 547 M 794 547 L 794 547 M 794 544 L 794 544 M 794 544 L 794 547 M 794 544 L 794 547 M 790 547 L 790 547 M 790 544 L 790 544 M 790 544 L 790 547 M 790 544 L 790 547 M 787 547 L 788 547 M 787 544 L 788 544 M 787 544 L 787 547 M 788 544 L 788 547 M 782 547 L 782 547 M 782 544 L 782 544 M 782 544 L 782 547 M 782 544 L 782 547 M 778 547 L 779 547 M 778 544 L 779 544 M 778 544 L 778 547 M 779 544 L 779 547 M 776 547 L 777 547 M 776 544 L 777 544 M 776 544 L 776 547 M 777 544 L 777 547 M 772 547 L 772 547 M 772 544 L 772 544 M 772 544 L 772 547 M 772 544 L 772 547 M 769 547 L 770 547 M 769 544 L 770 544 M 769 544 L 769 547 M 770 544 L 770 547 M 767 547 L 767 547 M 767 544 L 767 544 M 767 544 L 767 547 M 767 544 L 767 547 M 760 547 L 761 547 M 760 544 L 761 544 M 760 544 L 760 547 M 761 544 L 761 547 M 756 547 L 757 547 M 756 544 L 757 544 M 756 544 L 756 547 M 757 544 L 757 547 M 754 547 L 754 547 M 754 544 L 754 544 M 754 544 L 754 547 M 754 544 L 754 547 M 752 547 L 753 547 M 752 544 L 753 544 M 752 544 L 752 547 M 753 544 L 753 547 M 745 547 L 745 547 M 745 544 L 745 544 M 745 544 L 745 547 M 745 544 L 745 547 M 740 547 L 741 547 M 740 544 L 741 544 M 740 544 L 740 547 M 741 544 L 741 547 M 737 547 L 737 547 M 737 544 L 737 544 M 737 544 L 737 547 M 737 544 L 737 547 M 728 547 L 729 547 M 728 544 L 729 544 M 728 544 L 728 547 M 729 544 L 729 547 M 723 547 L 724 547 M 723 544 L 724 544 M 723 544 L 723 547 M 724 544 L 724 547 M 720 547 L 720 547 M 720 544 L 720 544 M 720 544 L 720 547 M 720 544 L 720 547 M 716 547 L 716 547 M 716 544 L 716 544 M 716 544 L 716 547 M 716 544 L 716 547 M 712 547 L 713 547 M 712 544 L 713 544 M 712 544 L 712 547 M 713 544 L 713 547 M 709 547 L 709 547 M 709 544 L 709 544 M 709 544 L 709 547 M 709 544 L 709 547 M 706 547 L 707 547 M 706 544 L 707 544 M 706 544 L 706 547 M 707 544 L 707 547 M 705 547 L 705 547 M 705 544 L 705 544 M 705 544 L 705 547 M 705 544 L 705 547 M 698 547 L 699 547 M 698 544 L 699 544 M 698 544 L 698 547 M 699 544 L 699 547 M 693 547 L 693 547 M 693 544 L 693 544 M 693 544 L 693 547 M 693 544 L 693 547 M 691 547 L 692 547 M 691 544 L 692 544 M 691 544 L 691 547 M 692 544 L 692 547 M 684 547 L 685 547 M 684 544 L 685 544 M 684 544 L 684 547 M 685 544 L 685 547 M 679 547 L 680 547 M 679 544 L 680 544 M 679 544 L 679 547 M 680 544 L 680 547 M 676 547 L 677 547 M 676 544 L 677 544 M 676 544 L 676 547 M 677 544 L 677 547 M 674 547 L 674 547 M 674 544 L 674 544 M 674 544 L 674 547 M 674 544 L 674 547 M 666 547 L 667 547 M 666 544 L 667 544 M 666 544 L 666 547 M 667 544 L 667 547 M 662 547 L 663 547 M 662 544 L 663 544 M 662 544 L 662 547 M 663 544 L 663 547 M 659 547 L 659 547 M 659 544 L 659 544 M 659 544 L 659 547 M 659 544 L 659 547 M 656 547 L 657 547 M 656 544 L 657 544 M 656 544 L 656 547 M 657 544 L 657 547 M 648 547 L 648 547 M 648 544 L 648 544 M 648 544 L 648 547 M 648 544 L 648 547 M 642 547 L 643 547 M 642 544 L 643 544 M 642 544 L 642 547 M 643 544 L 643 547 M 638 547 L 639 547 M 638 544 L 639 544 M 638 544 L 638 547 M 639 544 L 639 547 M 635 547 L 636 547 M 635 544 L 636 544 M 635 544 L 635 547 M 636 544 L 636 547 M 627 547 L 627 547 M 627 544 L 627 544 M 627 544 L 627 547 M 627 544 L 627 547 M 621 547 L 621 547 M 621 544 L 621 544 M 621 544 L 621 547 M 621 544 L 621 547 M 615 547 L 616 547 M 615 544 L 616 544 M 615 544 L 615 547 M 616 544 L 616 547 M 611 547 L 611 547 M 611 544 L 611 544 M 611 544 L 611 547 M 611 544 L 611 547 M 593 547 L 593 547 M 593 544 L 593 544 M 593 544 L 593 547 M 593 544 L 593 547 M 585 547 L 585 547 M 585 544 L 585 544 M 585 544 L 585 547 M 585 544 L 585 547 M 576 547 L 576 547 M 576 544 L 576 544 M 576 544 L 576 547 M 576 544 L 576 547 M 568 547 L 568 547 M 568 544 L 568 544 M 568 544 L 568 547 M 568 544 L 568 547 M 560 547 L 560 547 M 560 544 L 560 544 M 560 544 L 560 547 M 560 544 L 560 547 M 558 547 L 559 547 M 558 544 L 559 544 M 558 544 L 558 547 M 559 544 L 559 547 M 556 547 L 557 547 M 556 544 L 557 544 M 556 544 L 556 547 M 557 544 L 557 547 M 554 547 L 555 547 M 554 544 L 555 544 M 554 544 L 554 547 M 555 544 L 555 547 M 549 547 L 550 547 M 549 544 L 550 544 M 549 544 L 549 547 M 550 544 L 550 547 M 546 547 L 547 547 M 546 544 L 547 544 M 546 544 L 546 547 M 547 544 L 547 547 M 544 547 L 544 547 M 544 544 L 544 544 M 544 544 L 544 547 M 544 544 L 544 547 M 534 547 L 535 547 M 534 544 L 535 544 M 534 544 L 534 547 M 535 544 L 535 547 M 532 547 L 533 547 M 532 544 L 533 544 M 532 544 L 532 547 M 533 544 L 533 547 M 528 547 L 528 547 M 528 544 L 528 544 M 528 544 L 528 547 M 528 544 L 528 547 M 525 547 L 526 547 M 525 544 L 526 544 M 525 544 L 525 547 M 526 544 L 526 547 M 523 547 L 523 547 M 523 544 L 523 544 M 523 544 L 523 547 M 523 544 L 523 547 M 515 547 L 515 547 M 515 544 L 515 544 M 515 544 L 515 547 M 515 544 L 515 547 M 513 547 L 514 547 M 513 544 L 514 544 M 513 544 L 513 547 M 514 544 L 514 547 M 507 547 L 508 547 M 507 544 L 508 544 M 507 544 L 507 547 M 508 544 L 508 547 M 498 547 L 498 547 M 498 544 L 498 544 M 498 544 L 498 547 M 498 544 L 498 547 M 492 547 L 492 547 M 492 544 L 492 544 M 492 544 L 492 547 M 492 544 L 492 547 M 481 547 L 482 547 M 481 544 L 482 544 M 481 544 L 481 547 M 482 544 L 482 547 M 476 547 L 477 547 M 476 544 L 477 544 M 476 544 L 476 547 M 477 544 L 477 547 M 472 547 L 473 547 M 472 544 L 473 544 M 472 544 L 472 547 M 473 544 L 473 547 M 470 547 L 470 547 M 470 544 L 470 544 M 470 544 L 470 547 M 470 544 L 470 547 M 468 547 L 468 547 M 468 544 L 468 544 M 468 544 L 468 547 M 468 544 L 468 547 M 458 547 L 459 547 M 458 544 L 459 544 M 458 544 L 458 547 M 459 544 L 459 547 M 452 547 L 452 547 M 452 544 L 452 544 M 452 544 L 452 547 M 452 544 L 452 547 M 450 547 L 451 547 M 450 544 L 451 544 M 450 544 L 450 547 M 451 544 L 451 547 M 445 547 L 445 547 M 445 544 L 445 544 M 445 544 L 445 547 M 445 544 L 445 547 M 441 547 L 441 547 M 441 544 L 441 544 M 441 544 L 441 547 M 441 544 L 441 547 M 437 547 L 437 547 M 437 544 L 437 544 M 437 544 L 437 547 M 437 544 L 437 547 M 433 547 L 433 547 M 433 544 L 433 544 M 433 544 L 433 547 M 433 544 L 433 547 M 429 547 L 429 547 M 429 544 L 429 544 M 429 544 L 429 547 M 429 544 L 429 547 M 425 547 L 426 547 M 425 544 L 426 544 M 425 544 L 425 547 M 426 544 L 426 547 M 421 547 L 422 547 M 421 544 L 422 544 M 421 544 L 421 547 M 422 544 L 422 547 M 601 547 L 602 547 M 601 544 L 602 544 M 601 544 L 601 547 M 602 544 L 602 547 M 418 547 L 419 547 M 418 544 L 419 544 M 418 544 L 418 547 M 419 544 L 419 547 M 415 547 L 416 547 M 415 544 L 416 544 M 415 544 L 415 547 M 416 544 L 416 547 M 411 547 L 412 547 M 411 544 L 412 544 M 411 544 L 411 547 M 412 544 L 412 547 M 408 547 L 408 547 M 408 544 L 408 544 M 408 544 L 408 547 M 408 544 L 408 547 M 405 547 L 405 547 M 405 544 L 405 544 M 405 544 L 405 547 M 405 544 L 405 547 M 401 547 L 401 547 M 401 544 L 401 544 M 401 544 L 401 547 M 401 544 L 401 547 M 398 547 L 399 547 M 398 544 L 399 544 M 398 544 L 398 547 M 399 544 L 399 547 M 396 547 L 396 547 M 396 544 L 396 544 M 396 544 L 396 547 M 396 544 L 396 547 M 392 547 L 393 547 M 392 544 L 393 544 M 392 544 L 392 547 M 393 544 L 393 547 M 389 547 L 390 547 M 389 544 L 390 544 M 389 544 L 389 547 M 390 544 L 390 547 M 386 547 L 387 547 M 386 544 L 387 544 M 386 544 L 386 547 M 387 544 L 387 547 M 383 547 L 384 547 M 383 544 L 384 544 M 383 544 L 383 547 M 384 544 L 384 547 M 381 547 L 381 547 M 381 544 L 381 544 M 381 544 L 381 547 M 381 544 L 381 547 M 378 547 L 379 547 M 378 544 L 379 544 M 378 544 L 378 547 M 379 544 L 379 547 M 369 547 L 370 547 M 369 544 L 370 544 M 369 544 L 369 547 M 370 544 L 370 547 M 364 547 L 365 547 M 364 544 L 365 544 M 364 544 L 364 547 M 365 544 L 365 547 M 361 547 L 362 547 M 361 544 L 362 544 M 361 544 L 361 547 M 362 544 L 362 547 M 355 547 L 355 547 M 355 544 L 355 544 M 355 544 L 355 547 M 355 544 L 355 547 M 347 547 L 348 547 M 347 544 L 348 544 M 347 544 L 347 547 M 348 544 L 348 547 M 340 547 L 341 547 M 340 544 L 341 544 M 340 544 L 340 547 M 341 544 L 341 547 M 336 547 L 337 547 M 336 544 L 337 544 M 336 544 L 336 547 M 337 544 L 337 547 M 334 547 L 334 547 M 334 544 L 334 544 M 334 544 L 334 547 M 334 544 L 334 547 M 328 547 L 329 547 M 328 544 L 329 544 M 328 544 L 328 547 M 329 544 L 329 547 M 325 547 L 326 547 M 325 544 L 326 544 M 325 544 L 325 547 M 326 544 L 326 547 M 322 547 L 323 547 M 322 544 L 323 544 M 322 544 L 322 547 M 323 544 L 323 547 M 314 547 L 314 547 M 314 544 L 314 544 M 314 544 L 314 547 M 314 544 L 314 547 M 309 547 L 310 547 M 309 544 L 310 544 M 309 544 L 309 547 M 310 544 L 310 547 M 306 547 L 306 547 M 306 544 L 306 544 M 306 544 L 306 547 M 306 544 L 306 547 M 299 547 L 300 547 M 299 544 L 300 544 M 299 544 L 299 547 M 300 544 L 300 547 M 296 547 L 296 547 M 296 544 L 296 544 M 296 544 L 296 547 M 296 544 L 296 547 M 292 547 L 293 547 M 292 544 L 293 544 M 292 544 L 292 547 M 293 544 L 293 547 M 285 547 L 286 547 M 285 544 L 286 544 M 285 544 L 285 547 M 286 544 L 286 547 M 281 547 L 282 547 M 281 544 L 282 544 M 281 544 L 281 547 M 282 544 L 282 547 M 278 547 L 279 547 M 278 544 L 279 544 M 278 544 L 278 547 M 279 544 L 279 547 M 273 547 L 273 547 M 273 544 L 273 544 M 273 544 L 273 547 M 273 544 L 273 547 M 269 547 L 270 547 M 269 544 L 270 544 M 269 544 L 269 547 M 270 544 L 270 547 M 266 547 L 267 547 M 266 544 L 267 544 M 266 544 L 266 547 M 267 544 L 267 547 M 262 547 L 263 547 M 262 544 L 263 544 M 262 544 L 262 547 M 263 544 L 263 547 M 254 547 L 255 547 M 254 544 L 255 544 M 254 544 L 254 547 M 255 544 L 255 547 M 249 547 L 250 547 M 249 544 L 250 544 M 249 544 L 249 547 M 250 544 L 250 547 M 246 547 L 247 547 M 246 544 L 247 544 M 246 544 L 246 547 M 247 544 L 247 547 M 241 547 L 241 547 M 241 544 L 241 544 M 241 544 L 241 547 M 241 544 L 241 547 M 238 547 L 238 547 M 238 544 L 238 544 M 238 544 L 238 547 M 238 544 L 238 547 M 235 547 L 236 547 M 235 544 L 236 544 M 235 544 L 235 547 M 236 544 L 236 547 M 231 547 L 231 547 M 231 544 L 231 544 M 231 544 L 231 547 M 231 544 L 231 547 M 227 547 L 228 547 M 227 544 L 228 544 M 227 544 L 227 547 M 228 544 L 228 547 M 225 547 L 225 547 M 225 544 L 225 544 M 225 544 L 225 547 M 225 544 L 225 547 M 219 547 L 219 547 M 219 544 L 219 544 M 219 544 L 219 547 M 219 544 L 219 547 M 215 547 L 215 547 M 215 544 L 215 544 M 215 544 L 215 547 M 215 544 L 215 547 M 212 547 L 213 547 M 212 544 L 213 544 M 212 544 L 212 547 M 213 544 L 213 547 M 207 547 L 207 547 M 207 544 L 207 544 M 207 544 L 207 547 M 207 544 L 207 547 M 203 547 L 204 547 M 203 544 L 204 544 M 203 544 L 203 547 M 204 544 L 204 547 M 200 547 L 200 547 M 200 544 L 200 544 M 200 544 L 200 547 M 200 544 L 200 547 M 193 547 L 194 547 M 193 544 L 194 544 M 193 544 L 193 547 M 194 544 L 194 547 M 351 547 L 351 547 M 351 544 L 351 544 M 351 544 L 351 547 M 351 544 L 351 547 M 189 547 L 190 547 M 189 544 L 190 544 M 189 544 L 189 547 M 190 544 L 190 547 M 187 547 L 187 547 M 187 544 L 187 544 M 187 544 L 187 547 M 187 544 L 187 547 M 181 547 L 181 547 M 181 544 L 181 544 M 181 544 L 181 547 M 181 544 L 181 547 M 177 547 L 178 547 M 177 544 L 178 544 M 177 544 L 177 547 M 178 544 L 178 547 M 1567 547 L 1568 547 M 1567 544 L 1568 544 M 1567 544 L 1567 547 M 1568 544 L 1568 547 M 1567 547 L 1574 547 M 1567 544 L 1574 544 M 1567 544 L 1567 547 M 1574 544 L 1574 547 M 1574 547 L 1584 547 M 1574 544 L 1584 544 M 1574 544 L 1574 547 M 1584 544 L 1584 547 M 1584 547 L 1604 547 M 1584 544 L 1604 544 M 1584 544 L 1584 547 M 1604 544 L 1604 547 M 1604 547 L 1618 547 M 1604 544 L 1618 544 M 1604 544 L 1604 547 M 1618 544 L 1618 547 M 1618 547 L 1637 547 M 1618 544 L 1637 544 M 1618 544 L 1618 547 M 1637 544 L 1637 547 M 1650 549 L 1670 549 M 1650 544 L 1670 544 M 1650 544 L 1650 549 M 1670 544 L 1670 549 M 1670 549 L 1683 549 M 1670 544 L 1683 544 M 1670 544 L 1670 549 M 1683 544 L 1683 549 M 1683 549 L 1703 549 M 1683 544 L 1703 544 M 1683 544 L 1683 549 M 1703 544 L 1703 549 M 1703 549 L 1743 549 M 1703 544 L 1743 544 M 1703 544 L 1703 549 M 1743 544 L 1743 549 M 1638 547 L 1641 547 M 1638 544 L 1641 544 M 1638 544 L 1638 547 M 1641 544 L 1641 547 M 1641 547 L 1645 547 M 1641 544 L 1645 544 M 1641 544 L 1641 547 M 1645 544 L 1645 547 M 1646 547 L 1650 547 M 1646 544 L 1650 544 M 1646 544 L 1646 547 M 1650 544 L 1650 547 M 630 547 L 632 547 M 630 544 L 632 544 M 630 544 L 630 547 M 632 544 L 632 547 M 633 547 L 636 547 M 633 544 L 636 544 M 633 544 L 633 547 M 636 544 L 636 547 M 174 549 L 180 549 M 174 547 L 180 547 M 174 547 L 174 549 M 180 547 L 180 549 M 180 549 L 186 549 M 180 547 L 186 547 M 180 547 L 180 549 M 186 547 L 186 549 M 186 549 L 191 549 M 186 547 L 191 547 M 186 547 L 186 549 M 191 547 L 191 549 M 191 549 L 196 549 M 191 547 L 196 547 M 191 547 L 191 549 M 196 547 L 196 549 M 196 549 L 200 549 M 196 547 L 200 547 M 196 547 L 196 549 M 200 547 L 200 549 M 200 549 L 206 549 M 200 547 L 206 547 M 200 547 L 200 549 M 206 547 L 206 549 M 206 549 L 214 549 M 206 547 L 214 547 M 206 547 L 206 549 M 214 547 L 214 549 M 214 549 L 227 549 M 214 547 L 227 547 M 214 547 L 214 549 M 227 547 L 227 549 M 227 549 L 241 549 M 227 547 L 241 547 M 227 547 L 227 549 M 241 547 L 241 549 M 241 549 L 246 549 M 241 547 L 246 547 M 241 547 L 241 549 M 246 547 L 246 549 M 246 549 L 256 549 M 246 547 L 256 547 M 246 547 L 246 549 M 256 547 L 256 549 M 256 549 L 268 549 M 256 547 L 268 547 M 256 547 L 256 549 M 268 547 L 268 549 M 268 549 L 278 549 M 268 547 L 278 547 M 268 547 L 268 549 M 278 547 L 278 549 M 278 549 L 290 549 M 278 547 L 290 547 M 278 547 L 278 549 M 290 547 L 290 549 M 301 549 L 306 549 M 301 547 L 306 547 M 301 547 L 301 549 M 306 547 L 306 549 M 295 549 L 301 549 M 295 547 L 301 547 M 295 547 L 295 549 M 301 547 L 301 549 M 300 549 L 301 549 M 300 547 L 301 547 M 300 547 L 300 549 M 301 547 L 301 549 M 301 549 L 301 549 M 301 547 L 301 547 M 301 547 L 301 549 M 301 547 L 301 549 M 290 549 L 295 549 M 290 547 L 295 547 M 290 547 L 290 549 M 295 547 L 295 549 M 305 550 L 311 550 M 305 546 L 311 546 M 305 546 L 305 550 M 311 546 L 311 550 M 311 549 L 316 549 M 311 547 L 316 547 M 311 547 L 311 549 M 316 547 L 316 549 M 316 549 L 321 549 M 316 547 L 321 547 M 316 547 L 316 549 M 321 547 L 321 549 M 321 549 L 327 549 M 321 547 L 327 547 M 321 547 L 321 549 M 327 547 L 327 549 M 327 549 L 333 549 M 327 547 L 333 547 M 327 547 L 327 549 M 333 547 L 333 549 M 333 549 L 339 549 M 333 547 L 339 547 M 333 547 L 333 549 M 339 547 L 339 549 M 339 549 L 345 549 M 339 547 L 345 547 M 339 547 L 339 549 M 345 547 L 345 549 M 345 549 L 346 549 M 345 547 L 346 547 M 345 547 L 345 549 M 346 547 L 346 549 M 346 549 L 348 549 M 346 547 L 348 547 M 346 547 L 346 549 M 348 547 L 348 549 M 347 549 L 350 549 M 347 547 L 350 547 M 347 547 L 347 549 M 350 547 L 350 549 M 349 549 L 353 549 M 349 547 L 353 547 M 349 547 L 349 549 M 353 547 L 353 549 " transform="matrix(1,0,0,-1,0.5,1079.5)"/>
<path style="fill:none;stroke-width:2;stroke-linecap:butt;stroke-linejoin:miter;stroke:rgb(100%,100%,100%);stroke-opacity:1;stroke-miterlimit:10;" d="M 174 540 L 174 549 M 169 545 L 178 545 M 173 546 L 175 546 M 173 544 L 175 544 M 173 544 L 173 546 M 175 544 L 175 546 " transform="matrix(1,0,0,-1,0.5,1079.5)"/>
</g>
</svg>
